<?xml version="1.0" standalone="no"?>
<!DOCTYPE svg PUBLIC "-//W3C//DTD SVG 20010904//EN"
 "http://www.w3.org/TR/2001/REC-SVG-20010904/DTD/svg10.dtd">
<svg version="1.0" xmlns="http://www.w3.org/2000/svg"
 width="1080.000000pt" height="1080.000000pt" viewBox="0 0 1080.000000 1080.000000"
 preserveAspectRatio="xMidYMid meet">
<metadata>
Created by potrace 1.14, written by Peter Selinger 2001-2017
</metadata>
<g transform="translate(0.000000,1080.000000) scale(0.100000,-0.100000)"
fill="#000000" stroke="none">
<path d="M7627 8884 c-1 -1 -70 -5 -153 -8 -82 -4 -159 -8 -171 -10 -11 -3
-60 -7 -109 -11 -49 -4 -96 -9 -105 -10 -9 -2 -40 -6 -70 -9 -30 -4 -70 -9
-89 -11 -19 -3 -55 -7 -80 -10 -25 -3 -61 -8 -80 -10 -42 -6 -85 -11 -165 -20
-33 -3 -67 -8 -75 -10 -8 -2 -44 -7 -80 -10 -36 -3 -92 -10 -125 -15 -33 -5
-80 -12 -105 -15 -25 -3 -56 -8 -70 -10 -14 -2 -52 -7 -85 -11 -33 -3 -67 -8
-76 -9 -9 -2 -38 -6 -65 -9 -27 -4 -65 -9 -84 -11 -126 -17 -324 -39 -351 -38
-14 0 -48 18 -75 38 -104 80 -231 114 -412 110 -89 -2 -102 -5 -157 -36 -33
-18 -78 -43 -100 -54 -31 -17 -48 -36 -76 -91 -31 -60 -39 -69 -65 -70 -73 -4
-281 -20 -364 -29 -30 -3 -75 -8 -99 -10 -24 -2 -60 -7 -80 -9 -44 -6 -118
-14 -191 -21 -30 -3 -71 -7 -90 -10 -19 -2 -66 -6 -105 -10 -38 -3 -92 -8
-120 -10 -27 -2 -78 -7 -112 -10 -35 -3 -89 -7 -120 -10 -55 -4 -117 -9 -263
-19 -239 -17 -541 -21 -1000 -13 -91 2 -173 1 -182 -1 -10 -2 -18 -14 -18 -26
0 -11 -9 -52 -19 -89 -11 -37 -20 -70 -20 -72 0 -37 -17 -98 -31 -113 -24 -26
-65 -114 -86 -186 -13 -47 -15 -84 -11 -175 7 -134 10 -154 42 -278 21 -79 97
-297 125 -358 20 -44 24 -75 25 -202 0 -72 3 -135 7 -138 3 -3 50 -18 104 -32
55 -14 104 -31 109 -38 6 -7 26 -32 45 -56 56 -69 87 -95 148 -124 85 -41 152
-62 239 -76 107 -17 660 -19 711 -3 23 7 128 14 272 17 173 3 247 9 280 20 26
9 77 15 123 14 85 -1 83 2 52 -72 -31 -76 -38 -93 -50 -130 -7 -22 -16 -58
-20 -80 -5 -32 -22 -56 -89 -125 -79 -81 -84 -89 -105 -165 -68 -244 -128
-417 -276 -790 -122 -309 -174 -450 -265 -725 -96 -289 -128 -423 -154 -644
-24 -196 -27 -262 -28 -489 l0 -216 36 -58 c27 -44 47 -103 85 -249 55 -209
95 -326 139 -408 26 -49 29 -61 24 -118 -12 -134 -15 -125 63 -168 185 -102
215 -118 298 -154 32 -14 80 -45 106 -68 27 -24 76 -54 109 -67 45 -17 78 -41
122 -85 58 -58 64 -61 123 -67 68 -7 339 -4 373 4 12 3 37 8 55 11 47 7 165
49 219 76 104 53 202 139 269 239 44 64 96 183 105 241 3 19 8 48 12 65 14 76
6 264 -15 357 -7 32 -53 95 -125 173 -10 11 -29 34 -42 50 -17 23 -33 31 -60
33 -70 5 -181 116 -171 171 27 148 36 200 38 226 2 17 6 35 10 40 8 11 27 75
42 140 4 17 9 47 11 67 3 20 11 50 19 65 8 15 29 71 45 124 34 105 76 185 121
227 19 19 33 48 46 97 27 108 145 454 173 510 29 58 56 97 99 145 36 39 41 51
73 165 43 158 127 335 233 490 15 22 39 78 53 125 62 208 158 461 259 685 15
33 33 74 40 90 44 100 176 423 210 518 14 37 23 47 41 48 13 1 27 2 32 3 4 1
43 6 87 10 44 5 87 9 95 11 8 1 42 6 75 9 33 3 76 8 95 11 36 5 74 9 169 20
30 4 62 8 71 10 9 2 41 6 70 10 29 4 62 9 74 11 12 2 44 6 71 9 28 4 61 8 75
10 30 5 268 34 328 41 106 11 137 13 234 20 103 7 434 10 538 5 30 -2 64 -1
75 2 63 17 191 61 241 83 52 23 71 25 197 27 106 0 142 4 151 15 6 7 18 21 26
30 8 10 32 40 52 68 21 28 67 77 102 108 51 45 72 72 104 138 43 90 53 142 53
278 -1 167 -37 310 -106 419 -64 102 -202 248 -355 377 -52 44 -109 100 -127
125 -51 71 -82 99 -194 177 -48 34 -55 36 -169 47 -36 3 -72 8 -80 10 -40 11
-573 28 -583 19z"/>
</g>
</svg>
